<svg width="30" height="32" viewBox="0 0 30 32" fill="none" xmlns="http://www.w3.org/2000/svg">
    <path
        d="M16.4627 0.305714C16.1573 -0.0607951 15.6177 -0.101525 15.2512 0.2039L13.7139 1.49687C13.3474 1.80229 13.3067 2.34188 13.6121 2.70839L24.0373 15.1188C24.302 15.4344 24.302 15.9027 24.0373 16.2285L13.6121 28.6389C13.3067 29.0054 13.3576 29.545 13.7139 29.8505L15.5566 31.3979C15.7501 31.5608 16.0453 31.5405 16.2082 31.3368L28.9037 16.2183C29.1684 15.9027 29.1684 15.4344 28.9037 15.1086L16.4627 0.295539V0.305714Z"
        fill="#2EC18D" />
    <path
        d="M18.0507 15.0781L8.50114 4.90748C8.32806 4.72422 8.03282 4.71404 7.84956 4.88711L5.79303 6.81129C5.60978 6.98436 5.59959 7.2796 5.77267 7.46286L12.9807 15.1392C13.2861 15.465 13.2963 15.974 12.9909 16.2998L5.47743 24.6786C5.30436 24.8721 5.32472 25.1571 5.50797 25.3302L7.60522 27.2035C7.79865 27.3765 8.08372 27.3562 8.25679 27.1729L18.0507 16.2387C18.346 15.9028 18.346 15.4039 18.0406 15.0781H18.0507Z"
        fill="#2EC18D" />
    <path
        d="M6.1494 15.4751L1.30333 10.059C0.906281 9.61101 0.163086 9.89606 0.163086 10.4967V21.3189C0.163086 21.9196 0.906281 22.2047 1.30333 21.7567L6.1494 16.3405C6.37337 16.0962 6.37337 15.7093 6.1494 15.465V15.4751Z"
        fill="#2EC18D" />
</svg>
    